<svg width="36" height="36" viewBox="0 0 36 36" fill="none" xmlns="http://www.w3.org/2000/svg">
<g id="Group">
<path id="Path" d="M36 18C36 8.05785 27.9422 0 18 0C8.05785 0 0 8.05785 0 18C0 26.986 6.58125 34.432 15.1875 35.782V23.2031H10.6172V18H15.1875V14.0344C15.1875 9.5238 17.8735 7.03125 21.9867 7.03125C23.9555 7.03125 26.0156 7.38281 26.0156 7.38281V11.8125H23.7446C21.5086 11.8125 20.8125 13.2012 20.8125 14.625V18H25.8046L25.0067 23.2031H20.8125V35.782C29.4188 34.432 36 26.986 36 18Z" fill="#1877F2"/>
<path id="Path_2" d="M25.0067 23.2031L25.8047 18H20.8125V14.625C20.8125 13.2012 21.5086 11.8125 23.7446 11.8125H26.0157V7.38281C26.0157 7.38281 23.9555 7.03125 21.9867 7.03125C17.8735 7.03125 15.1875 9.5238 15.1875 14.0344V18H10.6172V23.2031H15.1875V35.7821C16.1051 35.9262 17.0438 36 18 36C18.9563 36 19.895 35.9262 20.8125 35.7821V23.2031H25.0067Z" fill="white"/>
</g>
</svg>
